<svg xmlns="http://www.w3.org/2000/svg" viewBox="0 0 64 64">
  <defs>
    <linearGradient id="goldGrad" x1="0%" y1="0%" x2="100%" y2="100%">
      <stop offset="0%" stop-color="#D4AF37" />
      <stop offset="50%" stop-color="#B88B58" />
      <stop offset="100%" stop-color="#9E7445" />
    </linearGradient>
  </defs>

  <!-- Deep Espresso Obsidian Background -->
  <circle cx="32" cy="32" r="30" fill="#140C07" stroke="url(#goldGrad)" stroke-width="2.5" />
  <circle cx="32" cy="32" r="26" fill="none" stroke="#B88B58" stroke-width="0.8" stroke-dasharray="2 2" opacity="0.6" />

  <!-- Steam Arcs -->
  <path d="M27 21 C25 17 29 14 27 10" fill="none" stroke="#FAF7F2" stroke-width="1.8" stroke-linecap="round" opacity="0.85" />
  <path d="M35 21 C33 17 37 14 35 10" fill="none" stroke="#FAF7F2" stroke-width="1.8" stroke-linecap="round" opacity="0.85" />

  <!-- Artisan Cup Body -->
  <path d="M20 25 C20 25 21 39 32 39 C43 39 44 25 44 25 Z" fill="url(#goldGrad)" />
  
  <!-- Cup Rim Highlight -->
  <ellipse cx="32" cy="25" rx="12" ry="2.2" fill="#FAF7F2" opacity="0.25" />
  
  <!-- Cup Handle -->
  <path d="M43 27 C48 27 48 35 42 36" fill="none" stroke="url(#goldGrad)" stroke-width="2.2" stroke-linecap="round" />

  <!-- Saucer Base -->
  <path d="M17 44 C24 47 40 47 47 44" fill="none" stroke="url(#goldGrad)" stroke-width="2.4" stroke-linecap="round" />
</svg>
